<?xml version="1.0" encoding="utf-8"?>
<!-- Generator: Adobe Illustrator 18.0.0, SVG Export Plug-In . SVG Version: 6.00 Build 0)  -->
<!DOCTYPE svg PUBLIC "-//W3C//DTD SVG 1.1//EN" "http://www.w3.org/Graphics/SVG/1.1/DTD/svg11.dtd">
<svg version="1.1" id="图层_1" xmlns="http://www.w3.org/2000/svg" xmlns:xlink="http://www.w3.org/1999/xlink" x="0px" y="0px"
	 viewBox="0 0 128 128" enable-background="new 0 0 128 128" xml:space="preserve">
<path d="M64,0C28.7,0,0,28.7,0,64c0,35.3,28.7,64,64,64s64-28.7,64-64C128,28.7,99.3,0,64,0z M64,21.3l26.2,43.5L64,80.3L37.8,64.8
	L64,21.3z M64,106.7L64,106.7L64,106.7L64,106.7L64,106.7L37.8,69.8L64,85.2l26.2-15.5L64,106.7z"/>
<polygon opacity="0.1" points="64,85.2 37.8,69.8 64,106.7 64,106.7 64,106.7 64,106.7 64,106.7 64,85.2 "/>
<polygon opacity="0.1" points="37.9,64.6 37.8,64.8 64,80.3 64,21.3 "/>
</svg>
